<svg width="734" height="734" viewBox="0 0 734 734" fill="none" xmlns="http://www.w3.org/2000/svg">
<path d="M232.295 90.218C236.779 89.8002 245.172 90.0912 249.789 90.2044L278.996 91.0071C313.83 91.7779 348.658 92.7491 383.481 93.9209C424.317 94.8723 465.142 96.1613 505.957 97.7872L538.151 98.9382C545.395 99.1751 553.584 99.2403 560.713 100.071C577.479 102.003 592.793 110.5 603.305 123.701C609.656 131.778 614.526 139.709 620.264 148.122C633.012 166.67 645.356 185.492 657.287 204.576C661.15 210.587 665.06 216.571 669.013 222.526C671.451 226.149 674.515 230.245 676.569 234.007C685.916 251.122 681.701 272.812 679.543 291.041C670.139 365.15 660.243 439.195 649.861 513.17C647.617 528.715 645.474 544.271 643.438 559.842C641.56 574.42 639.951 590.105 635.869 604.221C633.274 613.183 626.178 623.149 618.809 628.847C594.155 647.904 561.247 645.026 532.213 641.644C524.264 640.715 516.286 640.142 508.34 639.175L227.488 607.904C199.486 604.909 171.5 601.762 143.531 598.465C119.162 595.57 89.4642 594.721 69.9412 578.157C51.3758 562.408 49.0021 540.204 54.792 517.807C60.5447 495.553 67.4732 473.744 73.861 451.651L111.067 322.483L147.99 196.826L159.024 159.999C161.401 151.921 163.599 143.782 166.316 135.865C173.968 113.559 192.447 98.1104 215.128 92.5C220.931 91.0648 226.338 90.5663 232.295 90.218Z" fill="black"/>
<path d="M239.596 103.816C246.584 102.772 260.792 103.808 268.371 104.016C280.042 104.247 291.709 104.592 303.373 105.051L407.393 108.04L497.917 110.265L528.016 110.918C542.42 111.254 558.996 110.686 570.12 121.664C580.492 131.899 579.152 147.589 577.467 160.791C576.683 166.937 575.898 173.12 575.041 179.293C572.324 199.305 569.285 219.273 565.923 239.187C560.655 273.614 554.627 307.92 547.853 342.082C544.445 359.002 540.76 376.959 535.667 393.443C533.789 399.528 528.378 408.659 523.794 413.067C509.451 426.864 490.986 430.72 471.948 430.82C449.939 430.63 427.94 429.974 405.96 428.856C355.995 426.702 306.088 423.341 256.284 418.776C233.035 416.797 209.827 414.379 186.67 411.519C173.102 409.792 154.724 409.157 143.679 400.772C137.456 395.981 133.408 388.9 132.437 381.105C131.689 375.452 132.308 368.1 133.698 362.574C141.245 332.566 151.005 303.012 159.142 273.17L186.679 174.483C190.609 160.803 194.056 146.757 198.438 133.182C199.502 129.887 202.623 125.139 204.703 122.41C213.59 110.749 225.26 105.644 239.596 103.816Z" fill="white"/>
<path d="M364.375 228.523C373.177 228.064 383.692 231.038 390.308 237.026C395.964 242.183 399.279 249.415 399.501 257.064C400.275 278.268 379.886 293.912 359.891 294.753C343.611 294.731 326.42 286.814 324.635 268.846C323.815 259.813 326.68 250.833 332.579 243.944C340.941 234.011 351.74 229.685 364.375 228.523Z" fill="black"/>
<path d="M324.351 303.114C331.864 305.541 337.879 311.511 347.193 312.363C355.096 313.086 359.551 312.765 367.378 310.972C369.733 310.432 381.918 305.986 382.879 306.179C384.8 307.474 384.269 309.367 383.205 311.164C373.503 327.545 365.203 344.664 355.791 361.209C353.304 366.094 340.135 391.369 337.197 393.873C335.967 394.164 336.557 394.214 335.37 393.666C333.498 391.261 334.03 389.15 333.531 386.373C332.145 378.672 331.473 370.884 330.364 363.129L325.206 324.698C324.322 318.479 323.018 312.064 322.242 305.984C322.579 304.594 323.273 304.165 324.351 303.114Z" fill="black"/>
<path d="M430.574 237.588C433.334 237.479 440.964 240.465 444.179 241.473C453.408 244.266 462.594 247.182 471.743 250.222L506.501 261.54C511.139 263.052 515.787 264.516 520.453 265.924C521.428 266.218 522.865 267.099 523.249 268.042C523.564 268.81 523.471 268.396 523.238 269.338C520.493 272.002 512.884 272.657 508.888 273.339C504.143 274.181 499.405 275.076 494.677 276.023L446.849 285.359C439.488 286.831 432.097 288.583 424.729 289.98C423.89 290.138 422.449 290.286 421.894 289.725C421.302 289.128 420.539 288.615 420.94 287.632C422.514 284.017 425.729 280.701 427.858 277.38C434.316 267.311 434.703 257.184 430.614 246.124C430.001 244.467 428.721 241.788 428.592 240.047C428.897 238.859 429.635 238.42 430.574 237.588Z" fill="black"/>
<path d="M299.309 232.391C299.734 232.32 300.574 232.277 301.04 232.238C301.978 232.599 303.992 234.031 303.379 234.941C296.52 245.121 288.19 253.945 290.84 267.238C291.351 269.807 295.171 280.701 294.923 282.099C294.183 283.233 293.846 283.331 292.656 284.078C290.309 284.252 237.366 266.868 230.628 264.765C227.285 263.858 222.71 262.174 219.328 261.114C215.463 259.903 204.482 257.448 202.056 254.938C201.924 253.687 201.879 253.737 202.417 252.518C204.248 250.709 219.701 248.31 223.311 247.561L274.701 237.332C282.974 235.704 291.113 234.405 299.309 232.391Z" fill="black"/>
<path d="M384.502 134.34C386.205 134.785 387.154 135.795 387.506 137.514C388.516 142.506 389.308 147.586 390.151 152.608L395.057 182.31L398.587 203.854C399.222 207.724 403.63 223.147 394.975 217.969C382.829 210.705 373.363 209.249 359.748 211.517C352.724 213.303 349.107 214.655 342.382 217.359L339.841 214.978C347.68 199.362 357.027 183.109 365.367 167.698L376.424 147.235C378.395 143.59 381.459 136.775 384.502 134.34Z" fill="black"/>
<path d="M590.374 136.803C592.621 138.383 595.678 145.171 596.696 147.833C598.961 153.919 600.126 160.359 600.136 166.852C600.133 178.746 597.886 195.738 596.423 207.678C593.979 228.448 591.162 249.173 587.976 269.843C582.001 309.441 575.622 349.121 566.945 388.233C564.465 399.406 562.118 409.899 557.465 420.381C562.293 426.118 571.264 450.82 574.35 458.564C583.758 482.305 592.897 506.153 601.767 530.102L613.107 560.562C617.816 573.606 622.852 583.357 613.662 595.917C610.77 584.615 603.538 567.285 599.269 555.653L565.902 465.354C561.892 454.357 555.455 438.897 552.258 428.129C546.939 436.475 540.069 442.018 531.586 446.863C535.6 455.797 538.936 465.691 542.456 474.887L564.816 534.571L577.783 570.385C581.249 579.942 584.596 589.012 587.367 598.906C590.571 608.531 585.876 613.753 576.382 615.874C562.028 619.078 558.602 601.153 554.964 591.592L544.319 564.164L504.168 456.449C493.251 458.822 464.25 457.091 451.942 456.499C415.905 454.79 379.904 452.375 343.959 449.261L304.772 446.093C272.659 443.251 240.582 440.029 208.547 436.421C194.668 434.93 180.813 433.235 166.984 431.339C157.897 430.142 140.395 428.634 133.186 424.151C121.877 455.647 111.039 487.311 100.677 519.133C97.4962 529.091 90.3964 549.729 89.2176 559.344C73.8333 553.861 66.737 537.398 70.6977 521.992C75.4089 503.666 83.9309 485.627 90.9544 468.038C95.6835 456.012 100.562 444.043 105.588 432.138C108.098 426.107 112.512 414.88 115.953 409.645C113.527 403.513 111.98 399.679 111.421 393.053C119.663 407.122 133.47 414.178 149.063 417.923C157.153 419.865 167.1 420.359 175.47 421.409C196.458 424.136 217.497 426.459 238.574 428.376C294.628 433.866 350.81 437.973 407.067 440.692C422.718 441.57 438.384 442.237 454.053 442.688C470.26 443.147 485.789 443.928 501.57 439.134C514.486 435.503 526.876 428.326 535.431 417.715C547.921 402.223 552.563 377.26 556.695 358.083C560.992 337.617 564.827 317.056 568.192 296.415C570.074 285.269 572.31 274.146 574.199 262.952C577.514 242.59 580.64 222.199 583.582 201.78L587.761 172.614C589.485 160.559 591.513 149.038 590.374 136.803Z" fill="#707070"/>
<path d="M189.034 125.867C189.697 126.629 188.701 128.59 188.298 129.622C185.6 136.538 183.776 143.873 181.799 151.047L174.523 177.537C167.123 205.26 159.51 232.927 151.687 260.534L130.238 334.807C124.727 354.078 114.922 377.099 123.161 396.375C123.862 398.016 124.542 399.668 125.241 401.309C123.738 400.105 122.252 398.88 120.783 397.633C115.191 392.031 112.416 387.376 112.341 379.346C112.217 365.971 116.86 352.234 120.587 339.448L130.24 306.912L149.291 240.926L168.885 173.569C173.954 156.487 176.347 139.265 189.034 125.867Z" fill="#707070"/>
</svg>
